# xmcd CD database file
#
# Track frame offsets:
#	150
#	21757
#	37060
#	59712
#	65387
#	79940
#	107040
#	129760
#
# Disc length: 2006 seconds
#
# Revision: 2
# Processed by: cddbd v1.4PL0 Copyright (c) Steve Scherf et al.
# Submitted via: CDex 1.40Release
#
DISCID=6907d408
DTITLE=Hetsheads - We Hail The Possessed...
DYEAR=1991
DGENRE=Metal
TTITLE0=Intro/Dissolution By Catatonia
TTITLE1=Remonstrating The Preserver
TTITLE2=Paganization
TTITLE3=Brutal Exhordation
TTITLE4=Cast In Silver
TTITLE5=Phlebotomize (Fade Away In Silence)
TTITLE6=When The Time Has Come
TTITLE7=For His Sake
EXTD=YEAR: 1991 ID3G: 9
EXTT0=
EXTT1=
EXTT2=
EXTT3=
EXTT4=
EXTT5=
EXTT6=
EXTT7=
PLAYORDER=
